<?xml version="1.0" encoding="UTF-8"?>
<svg width="23px" height="18px" viewBox="0 0 23 18" version="1.1" xmlns="http://www.w3.org/2000/svg" xmlns:xlink="http://www.w3.org/1999/xlink">
    <!-- Generator: Sketch 51.3 (57544) - http://www.bohemiancoding.com/sketch -->
    <title>chart-3</title>
    <desc>Created with Sketch.</desc>
    <defs></defs>
    <g id="Page-1" stroke="none" stroke-width="1" fill="none" fill-rule="evenodd">
        <g id="2" transform="translate(-62.000000, -537.000000)" fill="#A7A9C0" fill-rule="nonzero">
            <g id="chart-3" transform="translate(62.000000, 537.000000)">
                <path d="M1.83333333,16.1818182 L21.0833333,16.1818182 C21.5895944,16.1818182 22,16.588832 22,17.0909091 C22,17.5929861 21.5895944,18 21.0833333,18 L0.916666667,18 C0.410405646,18 0,17.5929861 0,17.0909091 L0,2.90909091 C0,2.40701386 0.410405646,2 0.916666667,2 C1.42292769,2 1.83333333,2.40701386 1.83333333,2.90909091 L1.83333333,16.1818182 Z M7.51344071,11.7336081 C7.17377632,12.0821597 6.61557629,12.0896473 6.26666604,11.750332 C5.91775578,11.4110167 5.91026051,10.8533904 6.24992487,10.5048387 L10.6607758,5.97705249 C10.9644201,5.66547548 11.450322,5.6220959 11.8044603,5.87494844 L14.2098984,7.5878318 L18.5520226,0.424705005 C18.7104758,0.162968943 18.9935886,0.00217593056 19.2997742,2.19105703e-05 C19.6059597,-0.00213210942 19.8913114,0.154661747 20.0534389,0.414142518 L22.8659511,4.91200169 C23.1238625,5.32423573 22.9984154,5.86728103 22.5857573,6.12492731 C22.1730991,6.38257359 21.6294951,6.25725544 21.3715837,5.8450214 L19.3185908,2.56008785 L15.2267027,9.31127764 C15.0996872,9.52073691 14.8910616,9.66786587 14.6509635,9.71730597 C14.4108655,9.76674607 14.1610032,9.71402722 13.9614246,9.571819 L11.3973862,7.74626911 L7.51344071,11.7336081 Z" id="Shape"></path>
            </g>
        </g>
    </g>
</svg>