<?xml version="1.0" encoding="UTF-8"?>
<svg width="18px" height="24px" viewBox="0 0 18 24" version="1.1" xmlns="http://www.w3.org/2000/svg" xmlns:xlink="http://www.w3.org/1999/xlink">
    <!-- Generator: Sketch 51.3 (57544) - http://www.bohemiancoding.com/sketch -->
    <title>Shape</title>
    <desc>Created with Sketch.</desc>
    <defs></defs>
    <g id="Page-1" stroke="none" stroke-width="1" fill="none" fill-rule="evenodd">
        <g id="2" transform="translate(-64.000000, -634.000000)" fill="#A7A9C0" fill-rule="nonzero">
            <path d="M73.0001515,634 C68.0289246,634 64,638.028929 64,643.000034 C64,647.970451 73.0001515,658 73.0001515,658 C73.0001515,658 82,647.970479 82,643.000034 C82,638.028929 77.9705796,634 73.0001515,634 Z M72.9999733,648.608696 C69.7834593,648.608696 67.1764706,646.038918 67.1764706,642.869499 C67.1764706,639.699633 69.7834593,637.130435 72.9999733,637.130435 C76.2159526,637.130435 78.8235294,639.699633 78.8235294,642.869499 C78.8235294,646.038918 76.2159526,648.608696 72.9999733,648.608696 Z M72.9999456,639.217391 C70.9529464,639.217391 69.2941176,640.852311 69.2941176,642.869498 C69.2941176,644.886739 70.9529191,646.521739 72.9999456,646.521739 C75.04572,646.521739 76.7058824,644.886712 76.7058824,642.869498 C76.7058824,640.852311 75.04572,639.217391 72.9999456,639.217391 Z" id="Shape"></path>
        </g>
    </g>
</svg>