<?xml version="1.0" encoding="UTF-8"?>
<svg width="24px" height="19px" viewBox="0 0 24 19" version="1.1" xmlns="http://www.w3.org/2000/svg" xmlns:xlink="http://www.w3.org/1999/xlink">
    <!-- Generator: Sketch 51.3 (57544) - http://www.bohemiancoding.com/sketch -->
    <title>chart-network</title>
    <desc>Created with Sketch.</desc>
    <defs></defs>
    <g id="Page-1" stroke="none" stroke-width="1" fill="none" fill-rule="evenodd">
        <g id="2" transform="translate(-61.000000, -587.000000)" fill="#FEC00F" fill-rule="nonzero">
            <g id="chart-network" transform="translate(61.000000, 587.000000)">
                <path d="M21.5,7 C22.8789062,7 24,5.87890625 24,4.5 C24,3.12109375 22.8789062,2 21.5,2 C20.1210938,2 19,3.12109375 19,4.5 C19,5.87890625 20.1210938,7 21.5,7 Z M2.5,9 C1.12109375,9 0,10.1210938 0,11.5 C0,12.8789062 1.12109375,14 2.5,14 C3.87890625,14 5,12.8789062 5,11.5 C5,10.1210938 3.87890625,9 2.5,9 Z M20,7.83116883 L19.1428571,7 L17,8.16883117 L17.8571429,9 L20,7.83116883 Z M21.6,14.25 C21.06,14.25 20.565,14.4355469 20.16375,14.7324219 L16.56375,12.5949219 C16.70625,12.1792969 16.8,11.7414062 16.8,11.2775391 C16.8,8.98046875 14.92125,7.12128906 12.6,7.12128906 C12.285,7.12128906 11.9775,7.16210937 11.685,7.22890625 L10.155,3.98554687 C10.5525,3.5625 10.8,2.9984375 10.8,2.375 C10.8,1.06503906 9.72375,0 8.4,0 C7.07625,0 6,1.06503906 6,2.375 C6,3.68496094 7.07625,4.75 8.4,4.75 C8.44125,4.75 8.47875,4.73886719 8.52,4.73886719 L10.0575,7.99707031 C9.05625,8.75410156 8.4,9.93789062 8.4,11.28125 C8.4,13.5783203 10.27875,15.4375 12.6,15.4375 C13.80375,15.4375 14.88,14.9291016 15.645,14.1275391 L19.2375,16.2613281 C19.21875,16.3800781 19.2,16.5025391 19.2,16.625 C19.2,17.9349609 20.27625,19 21.6,19 C22.92375,19 24,17.9349609 24,16.625 C24,15.3150391 22.92375,14.25 21.6,14.25 Z M13,14 C11.8958333,14 11,13.1041667 11,12 C11,10.8958333 11.8958333,10 13,10 C14.1041667,10 15,10.8958333 15,12 C15,13.1041667 14.1041667,14 13,14 Z M6,12 L8,12 L8,11 L6,11 L6,12 Z" id="Shape"></path>
            </g>
        </g>
    </g>
</svg>