<?xml version="1.0" encoding="UTF-8"?>
<svg width="24px" height="24px" viewBox="0 0 24 24" version="1.1" xmlns="http://www.w3.org/2000/svg" xmlns:xlink="http://www.w3.org/1999/xlink">
    <!-- Generator: Sketch 52.5 (67469) - http://www.bohemiancoding.com/sketch -->
    <title>Data Interpretation-1</title>
    <desc>Created with Sketch.</desc>
    <g id="Page-1" stroke="none" stroke-width="1" fill="none" fill-rule="evenodd">
        <g id="3" transform="translate(-330.000000, -139.000000)" fill="#FEC00F" fill-rule="nonzero">
            <g id="Data-Interpretation-1" transform="translate(330.000000, 139.000000)">
                <path d="M2.93888871,13.6520124 C3.40806876,13.6520124 3.7908209,13.2988235 3.7908209,12.8658824 L3.7908209,2.53226006 L14.9894078,2.53226006 C15.4585878,2.53226006 15.84134,2.17907121 15.84134,1.74613003 C15.84134,1.31318885 15.4585878,0.96 14.9894078,0.96 L2.93888871,0.96 C2.46970866,0.96 2.08695652,1.31318885 2.08695652,1.74613003 L2.08695652,12.8658824 C2.08695652,13.2988235 2.46970866,13.6520124 2.93888871,13.6520124 Z M17.8559154,14.3682972 C17.8188749,13.9695356 17.4484696,13.6505263 17.0163301,13.6505263 L16.31256,13.6505263 L16.31256,12.30613 C16.31256,11.8731889 15.9298079,11.52 15.4606278,11.52 C14.9914478,11.52 14.6086957,11.8731889 14.6086957,12.30613 L14.6086957,14.4252632 C14.6086957,14.8582043 14.9914478,15.2113932 15.4606278,15.2113932 L16.2261321,15.2113932 L16.8558211,22.2409907 C16.8928617,22.6397523 17.263267,22.9587616 17.7077533,22.9587616 L17.7941812,22.9587616 C18.2510144,22.9131889 18.596726,22.5372136 18.5596855,22.1156656 L17.8559154,14.3682972 Z" id="Shape"></path>
                <path d="M23.5402439,7.01568 C23.377913,6.88896 21.8919609,5.76 19.4320233,5.76 C16.9720858,5.76 15.4861336,6.88896 15.3238027,7.0272 C15.2863417,7.05024 15.2488808,7.0848 15.2114198,7.1424 L13.8378506,8.72064 L10.8409723,6.05952 C10.6786414,5.90976 10.4538756,5.82912 10.2291097,5.84064 C10.0043438,5.84064 9.77957795,5.9328 9.62973403,6.08256 C9.46740313,6.23232 9.37999418,6.43968 9.39248117,6.64704 C9.39248117,6.8544 9.49237711,7.06176 9.65470802,7.2 L13.3383709,10.4832 C13.5007018,10.62144 13.7129807,10.70208 13.9377465,10.70208 L14.0126685,10.70208 C14.2499213,10.67904 14.4622002,10.57536 14.6120441,10.40256 L16.49758,8.19072 C16.7098589,8.04096 17.7837403,7.36128 19.4320233,7.36128 C20.7181836,7.36128 21.667195,7.78752 22.1167268,8.04096 L22.1167268,13.95072 L21.4049682,13.95072 C20.9554364,13.95072 20.5808266,14.27328 20.5433657,14.67648 L19.8440941,22.51008 C19.8066331,22.93632 20.1437819,23.31648 20.6182876,23.36256 L20.7056966,23.36256 C21.1552283,23.36256 21.5298381,23.04 21.5672991,22.6368 L22.2041357,15.52896 L22.9783292,15.52896 C23.452835,15.52896 23.8399317,15.17184 23.8399317,14.73408 L23.8399317,7.61472 C23.8274448,7.38432 23.7275488,7.16544 23.5402439,7.01568 Z M13.1488033,13.44 L0.861602497,13.44 C0.387096774,13.44 0,13.79712 0,14.23488 C0,14.67264 0.387096774,15.02976 0.861602497,15.02976 L13.1363163,15.02976 C13.6108221,15.02976 13.9979188,14.67264 13.9979188,14.23488 C13.9979188,13.79712 13.6233091,13.44 13.1488033,13.44 Z M19.5551735,5.27616 C21.1285346,5.27616 22.4146948,4.0896 22.4146948,2.63808 C22.4146948,1.18656 21.1285346,0 19.5551735,0 C17.9818124,0 16.6956522,1.18656 16.6956522,2.63808 C16.6956522,4.0896 17.9818124,5.27616 19.5551735,5.27616 Z M18.8754468,1.92 C19.4997964,1.92 20.0117631,2.39232 20.0117631,2.96832 C20.0117631,3.54432 19.4997964,4.01664 18.8754468,4.01664 C18.2510971,4.01664 17.7391304,3.54432 17.7391304,2.96832 C17.7391304,2.39232 18.2510971,1.92 18.8754468,1.92 Z" id="Shape"></path>
            </g>
        </g>
    </g>
</svg>