<?xml version="1.0" encoding="UTF-8"?>
<svg width="24px" height="24px" viewBox="0 0 24 24" version="1.1" xmlns="http://www.w3.org/2000/svg" xmlns:xlink="http://www.w3.org/1999/xlink">
    <!-- Generator: Sketch 52.5 (67469) - http://www.bohemiancoding.com/sketch -->
    <title>Data Reasoning</title>
    <desc>Created with Sketch.</desc>
    <g id="Page-1" stroke="none" stroke-width="1" fill="none" fill-rule="evenodd">
        <g id="3" transform="translate(-292.000000, -281.000000)" fill="#A7A9C0" fill-rule="nonzero">
            <g id="Data-Reasoning" transform="translate(292.000000, 281.000000)">
                <path d="M12.0279311,13.495769 L18.4044553,13.495769 C19.1564758,14.7975419 20.7528255,15.3380775 22.1363248,14.7594072 C23.5198241,14.1807369 24.2619899,12.6620804 23.8713243,11.2091652 C23.4806587,9.75624992 22.0781546,8.81905779 20.5926177,9.01824251 C19.1070809,9.21742723 17.9985963,10.4912994 18.0012559,11.9962395 L12.0279311,11.9962395 L12.0279311,3.40393547 L18.5239218,3.40393547 C18.8518341,4.81643212 20.2079514,5.73688445 21.6354544,5.51586005 C23.0629573,5.29483565 24.0799713,4.00694458 23.968934,2.56086854 C23.8578967,1.11479251 22.6562904,-0.00132413611 21.211918,3.5128362e-06 C20.1799021,-0.00164569787 19.2339918,0.57752286 18.7628548,1.49953301 L11.2663322,1.49953301 C10.798708,1.56188079 10.4667631,1.98853386 10.5196666,2.45923189 L10.5196666,11.9962395 L5.57674039,11.9962395 C5.46705935,10.6010485 4.34969357,9.5006772 2.95839786,9.41772037 C1.56710216,9.33476353 0.327907294,10.2946235 0.054571152,11.6669769 C-0.21876499,13.0393302 0.557456263,14.4039465 1.87350382,14.8647057 C3.18955137,15.325465 4.6424363,14.7412775 5.27807415,13.495769 L10.5345999,13.495769 L10.5345999,21.5332471 C10.4816964,22.0039451 10.8136413,22.4305982 11.2812655,22.492946 L18.3596554,22.492946 C18.9005592,23.4339506 19.9060058,24.0075982 20.9879183,23.9924755 C22.037071,24.069464 23.0410525,23.5510442 23.5890225,22.6493591 C24.1369925,21.7476739 24.1369925,20.6140414 23.5890225,19.7123562 C23.0410525,18.8106711 22.037071,18.2922513 20.9879183,18.3692399 C19.5995121,18.3214842 18.3616389,19.2413125 18.0012559,20.5885435 L12.0279311,20.5885435 L12.0279311,13.495769 Z M20.9879183,10.8715924 C21.3370131,10.8667299 21.6641171,11.042287 21.8540504,11.3364465 C22.0292758,11.6213742 22.0292758,11.9812271 21.8540504,12.2661548 C21.6641171,12.5603143 21.3370131,12.7358714 20.9879183,12.7310089 C20.6262825,12.7770343 20.2707164,12.6091417 20.0753502,12.300109 C19.879984,11.9910762 19.879984,11.5965298 20.0753502,11.2874971 C20.2707164,10.9784643 20.6262825,10.8105717 20.9879183,10.8565971 L20.9879183,10.8715924 Z M21.211918,1.87441538 C21.7306129,1.89980957 22.1307173,2.34242283 22.1058201,2.86328973 C22.080923,3.38415664 21.6404418,3.78625614 21.1217092,3.76164936 C20.6029767,3.73704259 20.2022064,3.29503719 20.2263194,2.77413308 C20.2338904,2.52205243 20.3431215,2.28387584 20.5289595,2.11423095 C20.7147975,1.94458605 20.9612958,1.85803011 21.211918,1.87441538 Z M3.63540984,12.6410372 C3.47414081,12.9277401 3.17185859,13.1052806 2.84394431,13.1058913 C2.32847928,13.1058913 1.91061231,12.6862899 1.91061231,12.1686854 C1.91061231,11.6510808 2.32847928,11.2314794 2.84394431,11.2314794 C3.17185859,11.2320902 3.47414081,11.4096306 3.63540984,11.6963336 C3.80346733,11.9886259 3.80346733,12.3487449 3.63540984,12.6410372 Z M20.9879183,20.2286564 C21.5003816,20.2614445 21.8919977,20.7008043 21.8678529,21.215868 C21.8437081,21.7309316 21.4127227,22.1314092 20.8994581,22.115714 C20.3861935,22.1000188 19.9802748,21.6739492 19.9873864,21.1583647 C20.0116181,20.6258747 20.4573446,20.2116994 20.9879183,20.2286564 Z" id="Shape"></path>
            </g>
        </g>
    </g>
</svg>