<?xml version="1.0" encoding="UTF-8"?>
<svg width="16px" height="16px" viewBox="0 0 16 16" version="1.1" xmlns="http://www.w3.org/2000/svg" xmlns:xlink="http://www.w3.org/1999/xlink">
    <!-- Generator: Sketch 52.5 (67469) - http://www.bohemiancoding.com/sketch -->
    <title>Cluster-1</title>
    <desc>Created with Sketch.</desc>
    <g id="Page-1" stroke="none" stroke-width="1" fill="none" fill-rule="evenodd">
        <g id="3" transform="translate(-334.000000, -410.000000)" fill="#FEC00F" fill-rule="nonzero">
            <g id="Cluster-1" transform="translate(334.000000, 410.000000)">
                <path d="M11.8347401,6.13607131 L11.8347401,2.40279815 C11.8347401,2.20783031 11.7352288,2.02730452 11.5646379,1.93343112 L8.38738339,0.0704050547 C8.22390049,-0.0234683516 8.01776988,-0.0234683516 7.85428698,0.0704050547 L4.67703243,1.93343112 C4.51354953,2.02730452 4.40693025,2.20783031 4.40693025,2.40279815 L4.40693025,6.13607131 C4.40693025,6.33103915 4.50644158,6.51156493 4.67703243,6.60543834 L7.86139494,8.4684644 C7.94669036,8.51901162 8.03909374,8.54067472 8.13149711,8.54067472 C8.22390049,8.54067472 8.31630386,8.51901162 8.40159929,8.4684644 L11.5788538,6.60543834 C11.7352288,6.5043439 11.8347401,6.32381812 11.8347401,6.13607131 Z M10.7685473,5.81834593 L8.12438916,7.37086765 L5.47312306,5.81834593 L5.47312306,2.71330249 L8.12438916,1.16078077 L10.7685473,2.71330249 L10.7685473,5.81834593 Z M7.15770769,9.3927564 L3.98045313,7.52973034 C3.81697024,7.43585693 3.61083963,7.43585693 3.44735673,7.52973034 L0.270102177,9.3927564 C0.10661928,9.48662981 0,9.66715559 0,9.86212343 L0,13.5953966 C0,13.7903644 0.0995113283,13.9708902 0.270102177,14.0647636 L3.44735673,15.9277897 C3.53265215,15.9783369 3.62505553,16 3.71745891,16 C3.80986228,16 3.90226566,15.9783369 3.98756108,15.9277897 L7.16481564,14.0647636 C7.32829853,13.9708902 7.43491781,13.7903644 7.43491781,13.5953966 L7.43491781,9.86212343 C7.42780986,9.67437662 7.32829853,9.49385084 7.15770769,9.3927564 Z M6.36161706,13.2848922 L3.71745891,14.837414 L1.07330076,13.2848922 L1.07330076,10.1798488 L3.71745891,8.62732709 L6.36161706,10.1798488 L6.36161706,13.2848922 Z M15.7298978,9.3927564 L12.5455353,7.52973034 C12.3820524,7.43585693 12.1759218,7.43585693 12.0124389,7.52973034 L8.83518436,9.3927564 C8.67170147,9.48662981 8.56508219,9.66715559 8.56508219,9.86212343 L8.56508219,13.5953966 C8.56508219,13.7903644 8.66459351,13.9708902 8.83518436,14.0647636 L12.0124389,15.9277897 C12.0977343,15.9783369 12.1901377,16 12.2825411,16 C12.3749445,16 12.4673478,15.9783369 12.5526433,15.9277897 L15.7298978,14.0647636 C15.8933807,13.9708902 16,13.7903644 16,13.5953966 L16,9.86212343 C15.992892,9.67437662 15.8933807,9.49385084 15.7298978,9.3927564 Z M14.9266992,13.2848922 L12.2825411,14.837414 L9.63127499,13.2848922 L9.63127499,10.1798488 L12.2754331,8.62732709 L14.9195913,10.1798488 L14.9195913,13.2848922 L14.9266992,13.2848922 Z" id="形状"></path>
            </g>
        </g>
    </g>
</svg>