<?xml version="1.0" encoding="UTF-8"?>
<svg width="16px" height="16px" viewBox="0 0 16 16" version="1.1" xmlns="http://www.w3.org/2000/svg" xmlns:xlink="http://www.w3.org/1999/xlink">
    <!-- Generator: Sketch 52.5 (67469) - http://www.bohemiancoding.com/sketch -->
    <title>Compare-1</title>
    <desc>Created with Sketch.</desc>
    <g id="Page-1" stroke="none" stroke-width="1" fill="none" fill-rule="evenodd">
        <g id="3" transform="translate(-334.000000, -188.000000)" fill="#FEC00F" fill-rule="nonzero">
            <g id="Compare-1" transform="translate(334.000000, 188.000000)">
                <path d="M13.91175,13.40175 C13.92875,13.3825 13.9455,13.3655 13.9625,13.34625 C13.98675,13.31725 14.01325,13.29075 14.0375,13.26175 L14.09075,13.20125 C14.11475,13.17475 14.1365,13.14575 14.16075,13.11925 C14.17775,13.0975 14.197,13.07575 14.214,13.05425 C14.23575,13.0275 14.2575,13.001 14.279,12.97175 C14.296,12.95025 14.3155,12.9285 14.33225,12.90425 C14.354,12.87775 14.3735,12.85125 14.39525,12.82225 C14.412,12.8005 14.429,12.77625 14.446,12.75475 C14.46525,12.728 14.487,12.699 14.50625,12.6725 C14.52325,12.64825 14.54025,12.6265 14.557,12.6025 C14.5765,12.5735 14.59575,12.5445 14.6175,12.5155 C14.649,12.46975 14.68025,12.42375 14.70925,12.378 C14.72625,12.35375 14.74325,12.32725 14.75775,12.303 C14.777,12.274 14.794,12.245 14.81325,12.21375 C14.82775,12.192 14.84,12.17025 14.8545,12.14625 L14.91,12.05425 C14.922,12.0325 14.93425,12.01075 14.94875,11.98925 C14.968,11.95775 14.985,11.92625 15.00175,11.8925 C15.014,11.87075 15.0235,11.8515 15.03575,11.82975 C15.055,11.796 15.072,11.76225 15.08875,11.72825 L15.11775,11.6705 C15.1364634,11.6355744 15.15422,11.6001446 15.171,11.56425 C15.17825,11.54725 15.188,11.53025 15.19525,11.5135 C15.2145,11.47475 15.2315,11.436 15.25075,11.3975 C15.38125,11.115 15.48275,10.859 15.57225,10.59825 C15.594,10.53325 15.6085,10.48225 15.6255,10.434 C15.64725,10.364 15.664,10.31325 15.6785,10.265 C15.698,10.195 15.7125,10.14175 15.727,10.09125 C15.862,9.58400001 15.947,9.06725001 15.98075,8.54325 C15.98325,8.47825 15.988,8.425 15.99025,8.37175 C15.99025,8.355 15.99275,8.338 15.99275,8.31875 C15.99525,8.27775 15.99525,8.23675 15.99775,8.1955 C16,8.13525 16,8.0725 16,8.012 C16,7.95175 16,7.89125 15.9975,7.831 C15.9975,7.814 15.9975,7.79475 15.995,7.77775 C15.99275,7.7345 15.99275,7.6885 15.99025,7.64525 C15.99025,7.62825 15.98775,7.60875 15.98775,7.592 C15.9855,7.534 15.98075,7.4735 15.97825,7.41575 L15.96375,7.23925 C15.96125,7.2225 15.96125,7.208 15.95875,7.191 C15.954,7.14025 15.94925,7.08975 15.942,7.0365 L15.91775,6.84575 L15.9105,6.795 L15.88875,6.66000001 C15.872,6.56575001 15.86225,6.51000001 15.8525,6.45700001 C15.8475,6.43775001 15.84525,6.42075001 15.8405,6.40150001 C15.833,6.36275001 15.8235,6.32175001 15.81625,6.28325001 C15.81125,6.26375001 15.809,6.24700001 15.80425,6.22750001 L15.768,6.07550001 C15.7634635,6.05429343 15.7577886,6.03334646 15.751,6.01275001 C15.7415,5.97650001 15.73175,5.94275001 15.7245,5.90649999 C15.7195,5.88474999 15.7125,5.86299999 15.7075,5.84124999 C15.693,5.79299999 15.681,5.74474999 15.6665,5.69624999 C15.6589837,5.67492429 15.6525587,5.6532295 15.64725,5.63124999 C15.63725,5.59974999 15.62775,5.56599999 15.61575,5.53449999 C15.6087506,5.51080515 15.6006586,5.48744684 15.5915,5.46449999 C15.5764976,5.41746776 15.56041,5.37078862 15.54325,5.32449999 C15.53575,5.30274999 15.52875,5.28349999 15.5215,5.264 C15.50925,5.23275 15.49725,5.199 15.48525,5.1675 C15.4755,5.14575 15.46825,5.12175 15.4585,5.1 C15.44175,5.0565 15.42225,5.0105 15.4055,4.967 C15.39575,4.943 15.386,4.92125 15.3765,4.897 C15.36425,4.8705 15.35225,4.844 15.3425,4.815 C15.3305,4.79075 15.32075,4.76425 15.30875,4.74 C15.2895,4.699 15.2725,4.658 15.25325,4.617 C15.2413177,4.58994953 15.2283923,4.56334813 15.2145,4.53725 C15.2042182,4.51427879 15.1929579,4.49175818 15.18075,4.46975 C15.1685,4.443 15.154,4.4165 15.1395,4.38975 C15.12025,4.35125 15.101,4.315 15.0815,4.2765 C15.0687695,4.2509995 15.0550934,4.22598214 15.0405,4.2015 C15.026,4.1775 15.014,4.15325 14.9995,4.12675 C14.97775,4.0905 14.95825,4.05175 14.9365,4.01575 C14.9245,3.994 14.9125,3.97475 14.90025,3.953 C14.8785,3.91425 14.8545,3.878 14.83275,3.8395 C14.81825,3.81775 14.806,3.7935 14.7915,3.772 C14.7745,3.74525 14.75775,3.71875 14.74075,3.6895 C14.731,3.67275 14.719,3.65825 14.70925,3.6415 C14.68025,3.5955 14.649,3.552 14.62,3.50625 C14.61025,3.49175 14.6005,3.47975 14.591,3.46525 C14.55475,3.412 14.516,3.359 14.47725,3.30575 C14.4435,3.26 14.42175,3.2285 14.4,3.1995 C14.39675,3.1945 14.35075,3.135 14.26225,3.02075 C14.197,2.93875 14.151,2.88325 14.10275,2.82775 L14.0085,2.71650001 C13.95775,2.65625001 13.9285,2.62725001 13.902,2.59575001 C13.8855834,2.57609535 13.8678777,2.55755442 13.849,2.54025001 C13.8273567,2.51835912 13.806348,2.4958498 13.786,2.47275001 C13.745,2.42925001 13.704,2.38575001 13.6605,2.34475001 C13.62175,2.30600001 13.583,2.26725001 13.5445,2.23125001 L13.43575,2.12975001 C13.29075,1.99475001 13.14075,1.86650001 12.986,1.74349999 C12.887,1.66599999 12.79525,1.59599999 12.7035,1.52849999 C12.631,1.47774999 12.57525,1.43674999 12.51975,1.39824999 C12.4211333,1.33090416 12.3211112,1.26563973 12.21975,1.2025 C12.133,1.1495 12.08225,1.1205 12.0315,1.0915 C11.96375,1.0505 11.93225,1.0335 11.90325,1.0165 C11.83075,0.975499996 11.76075,0.936999996 11.69075,0.900749996 C11.5505,0.828249997 11.43925,0.772749997 11.32575,0.721999997 C11.1476266,0.639613378 10.9661346,0.56471456 10.78175,0.497499998 C10.7215,0.473249998 10.6635,0.453999998 10.60775,0.434749998 C10.54275,0.412999998 10.487,0.395999998 10.4315,0.376749999 C10.3730742,0.357676121 10.314226,0.339921612 10.255,0.323499999 C10.18,0.301749999 10.127,0.287249999 10.07625,0.272749999 C9.99875001,0.251249999 9.94800001,0.238999999 9.89724999,0.226999999 C9.81499999,0.207749999 9.76424999,0.197999999 9.71599999,0.185999999 C9.65485677,0.17258207 9.59360472,0.159664971 9.53224999,0.147249999 C9.51549999,0.144749999 9.49849999,0.139999999 9.48399999,0.137749999 C9.43799999,0.130249999 9.39224999,0.12075 9.34874999,0.1135 C9.32924999,0.111 9.30999999,0.10625 9.29074999,0.10375 C9.24725,0.0964999996 9.20375,0.0892499997 9.16,0.0844999997 C9.13736924,0.0823444595 9.11484659,0.0791746054 9.0925,0.0749999997 C9.05125,0.0702499997 9.01025,0.0629999998 8.96925,0.0582499998 L8.89175,0.0507499998 C8.85325,0.0462499998 8.81675,0.0412499998 8.77825,0.0389999998 L8.69125,0.0314999999 C8.6575,0.0289999999 8.62125,0.0244999999 8.58725,0.0219999999 L8.48575,0.0147499999 C8.4545,0.01225 8.4255,0.00974999996 8.394,0.00974999996 C8.3525,0.00749999997 8.30925,0.00749999997 8.26825,0.00499999998 C8.244,0.00499999998 8.22225,0.00249999999 8.19825,0.00249999999 C8.133,0 8.0675,0 8.0025,0 C7.96375,0 7.925,0 7.88875,0.00249999999 C7.843,0.00249999999 7.81375,0.00249999999 7.78725,0.00499999998 L7.39325,0.012 C5.48649999,0.166499999 3.71,0.977999996 2.34450001,2.34450001 C0.831499997,3.8565 0,5.86324999 0,8 C0,10.13675 0.833749997,12.146 2.34450001,13.65525 C3.7125,15.022 5.48650001,15.831 7.39325,15.97575 L7.73425,15.99525 L7.78975,15.99525 C7.81875,15.99525 7.84775,15.99525 7.87675,15.99775 C7.93225,15.99775 7.9685,16 8.00725,16 C10.0785,16 12.0315,15.22 13.525,13.79775 C13.5735,13.752 13.62175,13.706 13.6675,13.65775 C13.7135,13.61175 13.757,13.56825 13.8005,13.5225 C13.85625,13.462 13.88525,13.43325 13.91175,13.40175 Z M14.77225,9.90049999 C14.7646229,9.92434931 14.7581157,9.94854243 14.75275,9.97299999 C14.7455,9.99949999 14.736,10.02825 14.72875,10.055 C14.72125,10.07675 14.7165,10.0985 14.70925,10.12 C14.69475,10.1635 14.68025,10.2095 14.66575,10.253 C14.6585,10.277 14.649,10.29875 14.64175,10.323 C14.632,10.3495 14.62475,10.37375 14.615,10.398 C14.6055,10.422 14.59825,10.446 14.5885,10.4705 C14.57875,10.4945 14.56925,10.521 14.5595,10.54525 C14.54975,10.56675 14.5425,10.591 14.533,10.61275 C14.5185,10.649 14.504,10.68775 14.487,10.72375 C14.475,10.7505 14.46275,10.777 14.45325,10.806 C14.441,10.83 14.4315,10.85675 14.41925,10.881 C14.40975,10.905 14.3975,10.92675 14.388,10.951 C14.37825,10.975 14.36625,10.99675 14.354,11.021 C14.3445,11.0425 14.33225,11.06675 14.32275,11.0885 C14.3105,11.115 14.296,11.13925 14.284,11.16575 C14.267,11.1995 14.25025,11.23075 14.23325,11.26475 C14.21875,11.29125 14.20425,11.31775 14.18975,11.34675 L14.1535,11.412 C14.1415,11.43375 14.12925,11.458 14.11475,11.4795 C14.10275,11.50125 14.09075,11.523 14.07625,11.54475 C14.06175,11.569 14.0495,11.59075 14.035,11.61475 C14.023,11.63425 14.011,11.656 13.99875,11.67525 L13.92625,11.79125 C13.91425,11.8105 13.89975,11.83225 13.8875,11.8515 L13.844,11.9165 C13.8295,11.9385 13.815,11.95775 13.803,11.9795 L13.7595,12.0445 C13.745,12.064 13.7305,12.08575 13.716,12.105 C13.69675,12.134 13.675,12.1605 13.6555,12.1895 C13.63625,12.216 13.617,12.24275 13.59525,12.26925 C13.5777579,12.2913115 13.5608356,12.313819 13.5445,12.33675 C13.53,12.35625 13.513,12.3755 13.4985,12.39475 C13.4815,12.41425 13.467,12.43575 13.45025,12.45525 C13.43575,12.4745 13.41875,12.49375 13.40425,12.51325 C13.385,12.53475 13.368,12.5565 13.34875,12.57825 C13.327,12.6025 13.30525,12.629 13.2835,12.65325 C13.26175,12.67975 13.2375,12.704 13.21575,12.7305 C13.19875,12.74725 13.18425,12.76675 13.16725,12.7835 C13.1505,12.803 13.131,12.82225 13.11425,12.8415 C13.09725,12.8585 13.08025,12.87775 13.0635,12.89475 L13.0055,12.9525 C12.9885,12.9695 12.974,12.9865 12.957,13.001 C12.92575,13.03225 12.892,13.066 12.858,13.0975 C12.8413524,13.1121437 12.8252579,13.1274043 12.80975,13.14325 C12.79025,13.16275 12.7685,13.182 12.74925,13.20125 C12.73225,13.21825 12.713,13.23275 12.696,13.2495 C12.67675,13.269 12.655,13.28575 12.63575,13.30275 L12.5825,13.34875 C12.556,13.37025 12.52925,13.3945 12.5025,13.41625 C12.4785,13.4355 12.45675,13.45475 12.4325,13.47425 L12.36,13.53225 C12.34075,13.54675 12.32375,13.561 12.3045,13.5755 L12.2395,13.62625 C12.22,13.64075 12.203,13.65525 12.18375,13.66725 C12.1597468,13.6863637 12.1347088,13.7041406 12.10875,13.7205 C12.09175,13.7325 12.0725,13.747 12.0555,13.75925 C12.01925,13.78575 11.983,13.80975 11.94675,13.834 C11.9275,13.846 11.9105,13.85825 11.89125,13.87025 C11.867,13.887 11.843,13.9015 11.81875,13.9185 C11.7988664,13.9305734 11.7795149,13.9435021 11.76075,13.95725 L11.68575,14.003 C11.6665,14.015 11.6495,14.02475 11.63025,14.03675 C11.589,14.061 11.55025,14.085 11.50925,14.10925 L11.4585,14.13825 C11.432,14.15275 11.4055,14.16975 11.3765,14.184 C11.3571143,14.1959363 11.3368955,14.2064634 11.316,14.2155 C11.2895,14.23 11.26525,14.242 11.2385,14.2565 C11.21925,14.26625 11.2,14.276 11.18075,14.288 L11.07925,14.33875 C11.0575,14.34825 11.03575,14.3605 11.014,14.37 C10.9806286,14.3863329 10.9467804,14.401673 10.9125,14.416 C10.893,14.4255 10.87375,14.43275 10.852,14.4425 C10.8255,14.4545 10.79625,14.46675 10.76975,14.47875 C10.7505,14.4885 10.72875,14.4955 10.70925,14.50525 C10.6782426,14.5171387 10.6476421,14.5300626 10.6175,14.544 C10.6009996,14.5514645 10.5840501,14.5578936 10.56675,14.56325 L10.4315,14.614 C10.412,14.62125 10.39275,14.6285 10.37575,14.63325 C10.34675,14.643 10.3155,14.655 10.2865,14.66475 L10.2235,14.6865 C10.19225,14.696 10.16325,14.70575 10.13175,14.71525 C10.1125,14.72275 10.093,14.7275 10.07375,14.73475 C10.0266735,14.7498478 9.97915183,14.7635207 9.93124999,14.77575 C9.91424999,14.78075 9.89974999,14.7855 9.88274999,14.78775 C9.84899999,14.7975 9.81524999,14.807 9.77874999,14.81675 C9.75949999,14.82175 9.73774999,14.8265 9.71599999,14.83375 C9.68449999,14.841 9.65324999,14.84825 9.62174999,14.85775 C9.60249999,14.86275 9.58074999,14.8675 9.56124999,14.87225 C9.52274999,14.882 9.48149999,14.88925 9.44299999,14.899 C9.42599999,14.9015 9.40899999,14.90625 9.39449999,14.9085 C9.35099999,14.91825 9.30524999,14.9255 9.25925,14.935 C9.24,14.9375 9.2205,14.9425 9.19875,14.945 C9.165,14.9495 9.13375,14.95675 9.09975,14.96175 C9.078,14.96425 9.0585,14.969 9.03675,14.97125 L8.928,14.98575 L8.87725,14.99325 C8.8265,15.00025 8.77575,15.00525 8.7275,15.01 C8.7105,15.0125 8.696,15.0125 8.67925,15.015 C8.6405,15.0195 8.60175,15.022 8.56325,15.0245 C8.54625,15.027 8.52925,15.027 8.5125,15.0295 C8.464,15.03175 8.41575,15.0365 8.3675,15.039 L8.348,15.0315 C8.493,15.022 8.6355,15.01 8.77575,14.99075 L14.845,9.62249999 C14.84,9.64649999 14.833,9.67074999 14.828,9.69499999 C14.823,9.71174999 14.82075,9.72874999 14.816,9.74549999 C14.8085,9.77449999 14.8015,9.79624999 14.79425,9.82049999 L14.7725,9.90024999 L14.77225,9.90049999 Z M8.50975,1.0045 C8.52225,1.0045 8.53425,1.007 8.54625,1.007 C8.597,1.012 8.64775,1.01425 8.6985,1.0215 C8.7105,1.024 8.72275,1.024 8.73475,1.02625 C8.7735,1.03125 8.8145,1.036 8.85325,1.04075 C8.87,1.04325 8.8845,1.04575 8.9015,1.04575 C8.9475,1.0505 8.991,1.05775 9.03675,1.065 C9.0585,1.0675 9.078,1.07225 9.09975,1.0745 L9.18425,1.089 C9.2205,1.0965 9.25675,1.101 9.29299999,1.10825 C9.31724999,1.11325 9.34374999,1.11825 9.36799999,1.12275 C9.39699999,1.12775 9.42599999,1.135 9.45499999,1.13975 C9.46949999,1.14225 9.48399999,1.147 9.49849999,1.1495 C9.55649999,1.1615 9.61199999,1.176 9.66999999,1.188 C9.67749999,1.1905 9.68449999,1.1905 9.69174999,1.193 C9.79824999,1.2195 9.90199999,1.2485 10.00375,1.2775 C10.04225,1.28949999 10.07875,1.30149999 10.1125,1.31124999 L8.348,2.87375 L8.348,4.163 L11.1155,1.71449999 C11.13,1.72174999 11.142,1.72649999 11.1565,1.73374999 C11.17575,1.74349999 11.19525,1.75299999 11.212,1.76274999 C11.25075,1.78199999 11.292,1.80374999 11.3305,1.82549999 C11.3475,1.83524999 11.36675,1.84474999 11.38375,1.85449999 C11.40775,1.86899999 11.4345,1.88099999 11.45875,1.89549999 C11.48025,1.90774999 11.49975,1.91974999 11.52125,1.93174999 C11.5455,1.94624999 11.56725,1.95824999 11.5915,1.97274999 C11.6255,1.99224999 11.65675,2.01399999 11.69075,2.03325001 C11.7125,2.04775001 11.73425,2.05975001 11.75575,2.07425001 C11.78,2.08875001 11.80175,2.10325001 11.82575,2.12025001 C11.843,2.12975001 11.85975,2.14175001 11.87425,2.15150001 C11.959,2.20700001 12.041,2.26500001 12.12075,2.32300001 C12.133,2.33025001 12.1425,2.33975001 12.15475,2.34700001 C12.18125,2.36650001 12.20775,2.38575001 12.2345,2.40750001 C12.3045,2.46050001 12.36,2.50400001 12.41575,2.55000001 C12.4545,2.58125001 12.48325,2.60300001 12.51,2.62725001 C12.58,2.68750001 12.638,2.73825 12.69375,2.789 L8.348,6.64050001 L8.348,7.93 L13.3705,3.48675 C13.438,3.56675 13.50325,3.64625 13.56625,3.73075 C13.60975,3.78625 13.65075,3.84175 13.69175,3.89725 C13.75225,3.9795 13.81025,4.064 13.86575,4.1485 C13.931,4.2475 13.98425,4.332 14.035,4.419 C14.07625,4.484 14.105,4.53475 14.13425,4.588 C14.139,4.59775 14.14375,4.605 14.14875,4.6145 C14.1945,4.699 14.2405,4.7835 14.284,4.8705 L8.3455,10.14425 L8.3455,0.997499996 C8.411,0.997499996 8.45925,0.999999996 8.51,1.005 L8.50975,1.0045 Z M14.775,6.14800001 C14.799,6.24200001 14.8185,6.31450001 14.83525,6.38700001 C14.845,6.42800001 14.85225,6.45950001 14.8595,6.49325001 C14.862,6.50775001 14.86675,6.52225001 14.86925,6.53900001 C14.8765,6.57050001 14.88375,6.60175001 14.8885,6.63575001 C14.891,6.64525001 14.8935,6.65500001 14.8935,6.66475001 C14.9055,6.7225 14.915,6.7805 14.92475,6.8385 C14.92975,6.86025 14.932,6.8845 14.93675,6.906 C14.94175,6.93275 14.94425,6.95925 14.949,6.986 C14.95375,7.01475 14.9585,7.046 14.961,7.07525 C14.966,7.10425 14.96825,7.133 14.973,7.162 C14.978,7.20075 14.98275,7.2395 14.98525,7.278 L14.9925,7.33825 C14.995,7.3745 14.99975,7.40825 15.002,7.4445 C15.0045,7.4615 15.0045,7.4785 15.007,7.49525 C15.01175,7.546 15.01425,7.59675 15.0165,7.6475 C15.0165,7.6595 15.0165,7.674 15.019,7.6885 C15.0215,7.7295 15.0215,7.773 15.024,7.814 C15.024,7.8285 15.024,7.8455 15.02625,7.86 C15.02875,7.913 15.02875,7.96625 15.02875,8.02175 C15.02875,8.058 15.02875,8.09425 15.02625,8.13275 L8.3455,14.03925 L8.3455,11.47975 L14.6925,5.86549999 C14.70925,5.91599999 14.72375,5.96449999 14.73825,6.01500001 C14.74075,6.02725001 14.74325,6.03450001 14.74575,6.04175001 C14.75525,6.07800001 14.765,6.11175001 14.7745,6.14800001 L14.775,6.14800001 Z" id="Shape"></path>
            </g>
        </g>
    </g>
</svg>