<?xml version="1.0" encoding="UTF-8"?>
<svg width="16px" height="16px" viewBox="0 0 16 16" version="1.1" xmlns="http://www.w3.org/2000/svg" xmlns:xlink="http://www.w3.org/1999/xlink">
    <!-- Generator: Sketch 52.5 (67469) - http://www.bohemiancoding.com/sketch -->
    <title>Concretize</title>
    <desc>Created with Sketch.</desc>
    <g id="Page-1" stroke="none" stroke-width="1" fill="none" fill-rule="evenodd">
        <g id="3" transform="translate(-296.000000, -209.000000)" fill="#FFFFFF" fill-rule="nonzero">
            <g id="Concretize" transform="translate(296.000000, 209.000000)">
                <path d="M14.5284635,0.706470259 L10.743733,0.706470259 L10.743733,0 L6.400962,0 L6.400962,0.706470259 L2.61623153,0.706470259 C1.8040339,0.706470259 1.14285714,1.27769283 1.14285714,1.97938965 L1.14285714,3.40346821 C1.14285714,3.75511219 1.47252466,4.0399279 1.87954434,4.0399279 C2.28656401,4.0399279 2.61623153,3.75511219 2.61623153,3.40346821 L2.61623153,1.98098079 C2.61623153,1.98098079 2.61623153,1.97938965 2.61807325,1.97938965 L6.400962,1.97938965 L6.400962,2.71131829 L10.7418913,2.71131829 L10.7418913,1.97938965 L14.5247801,1.97938965 C14.5247801,1.97938965 14.5266218,1.97938965 14.5266218,1.98098079 L14.5266218,7.2588228 C14.5266218,7.2588228 14.5266218,7.26041395 14.5247801,7.26041395 L13.4031738,7.26041395 C12.9961541,7.26041395 12.6664866,7.54522966 12.6664866,7.89687364 C12.6664866,8.24851762 12.9961541,8.53333333 13.4031738,8.53333333 L14.5266218,8.53333333 C15.3388194,8.53333333 15.9999962,7.96211076 15.9999962,7.26041395 L15.9999962,1.97938965 C16.0018379,1.27769283 15.3406611,0.706470259 14.5284635,0.706470259 Z" id="Shape"></path>
                <path d="M12.157084,4.3300635 C11.9040109,4.21724987 11.6065818,4.25718087 11.3944757,4.43244658 L5.70616768,9.14033323 C5.86333286,8.80021315 5.95263126,8.42365163 5.95263126,8.02626643 C5.95263126,6.52522627 4.6953098,5.30530577 3.15223347,5.30530577 C1.60915714,5.30530577 0.350049723,6.52522627 0.350049723,8.02626643 C0.350049723,8.78980131 0.675095894,9.48045332 1.19838451,9.97501568 L0.421488442,10.3134005 C0.164309054,10.4261954 0,10.6726089 0,10.9467873 L0,15.3058774 C0,15.6893801 0.319688267,16 0.71438719,16 L8.09579283,16 C8.49049175,16 8.81018002,15.6893801 8.81018002,15.3058774 L8.81018002,12.241326 L12.4035476,8.09567869 C12.5124916,7.97073662 12.5714286,7.81282373 12.5714286,7.64796961 L12.5714286,4.95824446 C12.5714286,4.68927195 12.4089055,4.44285842 12.157084,4.3300635 Z M3.15044751,6.69355101 C3.90769793,6.69355101 4.52207091,7.29223177 4.52207091,8.02626643 C4.52207091,8.76203641 3.90591196,9.35898186 3.15044751,9.35898186 C2.39498305,9.35898186 1.7788241,8.7603011 1.7788241,8.02626643 C1.7788241,7.29223177 2.39498305,6.69355101 3.15044751,6.69355101 Z M11.1426542,7.39461485 L7.54928663,11.5402622 C7.44034258,11.6652043 7.38140564,11.8231171 7.38140564,11.9879713 L7.38140564,14.6117548 L1.42698841,14.6117548 L1.42698841,11.3962317 L2.17888093,11.0682588 L5.18823697,11.1567594 C5.36504779,11.1619654 5.53828669,11.1029649 5.67223429,10.9919053 L11.1408682,6.46275524 L11.1408682,7.39461485 L11.1426542,7.39461485 Z" id="Shape"></path>
            </g>
        </g>
    </g>
</svg>