<?xml version="1.0" encoding="UTF-8"?>
<svg width="17px" height="16px" viewBox="0 0 17 16" version="1.1" xmlns="http://www.w3.org/2000/svg" xmlns:xlink="http://www.w3.org/1999/xlink">
    <!-- Generator: Sketch 52.5 (67469) - http://www.bohemiancoding.com/sketch -->
    <title>Correlate-1</title>
    <desc>Created with Sketch.</desc>
    <g id="Page-1" stroke="none" stroke-width="1" fill="none" fill-rule="evenodd">
        <g id="3" transform="translate(-334.000000, -390.000000)" fill="#FEC00F" fill-rule="nonzero">
            <g id="Correlate-1" transform="translate(334.000000, 390.000000)">
                <path d="M3.29122994,15.6981132 C2.9907212,15.6981132 2.72026333,15.6679245 2.41975458,15.5773585 C1.57833009,15.3660377 0.857109104,14.7924528 0.43639686,14.0377358 C-0.465129377,12.4377358 0.0757863655,10.4150943 1.63843184,9.50943396 C2.38970371,9.05660377 3.29122994,8.93584906 4.13265443,9.17735849 C4.97407892,9.41886792 5.69529991,9.96226415 6.14606303,10.7169811 C6.59682615,11.4716981 6.71702965,12.3773585 6.47662265,13.2226415 C6.23621565,14.0679245 5.69529991,14.7924528 4.94402805,15.245283 C4.43316318,15.5471698 3.86219656,15.6981132 3.29122994,15.6981132 Z M3.29122994,10.2641509 C2.93061945,10.2641509 2.57000895,10.354717 2.23944933,10.5358491 C1.24777047,11.109434 0.887159979,12.4075472 1.4581266,13.4339623 C1.72858447,13.9169811 2.17934759,14.2792453 2.7503142,14.4301887 C3.29122994,14.5811321 3.86219656,14.490566 4.34301055,14.2188679 C4.82382455,13.9471698 5.18443504,13.4943396 5.33468942,12.9509434 C5.48494379,12.4075472 5.39479116,11.8339623 5.12433329,11.3509434 C4.85387542,10.8679245 4.4031123,10.5056604 3.83214569,10.354717 C3.65184044,10.2943396 3.47153519,10.2641509 3.29122994,10.2641509 Z M13.6888325,15.6981132 C13.1178659,15.6981132 12.5468993,15.5471698 12.0360344,15.245283 C11.2847626,14.7924528 10.713796,14.0981132 10.5034398,13.2226415 C10.2930837,12.3471698 10.3832363,11.4716981 10.8339995,10.7169811 C11.2847626,9.96226415 11.9759327,9.38867925 12.8474081,9.17735849 C13.6888325,8.93584906 14.5903588,9.05660377 15.3416306,9.50943396 C16.934327,10.4150943 17.4752427,12.4679245 16.5436656,14.0377358 C16.0929025,14.7924528 15.4017324,15.3660377 14.530257,15.5773585 C14.2597992,15.6679245 13.9893413,15.6981132 13.6888325,15.6981132 Z M13.6888325,10.2641509 C13.5085273,10.2641509 13.3282221,10.2943396 13.1479168,10.3245283 C12.6070011,10.4754717 12.1562379,10.8075472 11.8857801,11.3207547 C11.6153222,11.8037736 11.5251696,12.3773585 11.6754239,12.9207547 C11.8256783,13.4641509 12.1562379,13.9169811 12.6671028,14.1886792 C13.1479168,14.4603774 13.7188834,14.5509434 14.2597992,14.4 C14.8007149,14.2490566 15.251478,13.9169811 15.5219359,13.4037736 C16.0929025,12.4075472 15.7623429,11.109434 14.7406132,10.5056604 C14.4100535,10.354717 14.049443,10.2641509 13.6888325,10.2641509 Z M8.49003124,6.64150943 C6.6569279,6.64150943 5.18443504,5.16226415 5.18443504,3.32075472 C5.18443504,1.47924528 6.6569279,0 8.49003124,0 C10.3231346,0 11.7956274,1.47924528 11.7956274,3.32075472 C11.7956274,5.16226415 10.3231346,6.64150943 8.49003124,6.64150943 Z M8.49003124,1.20754717 C7.31804714,1.20754717 6.38647002,2.14339623 6.38647002,3.32075472 C6.38647002,4.49811321 7.31804714,5.43396226 8.49003124,5.43396226 C9.66201535,5.43396226 10.5935925,4.49811321 10.5935925,3.32075472 C10.5935925,2.14339623 9.66201535,1.20754717 8.49003124,1.20754717 Z M14.4701553,10.3849057 L14.4401044,10.3849057 C14.1095448,10.354717 13.8691378,10.0830189 13.8691378,9.7509434 L13.8691378,9.69056604 C13.8691378,9.56981132 13.8991887,9.47924528 13.8991887,9.35849057 C13.8991887,7.2754717 12.7272046,5.40377358 10.8640503,4.46792453 C10.5635416,4.31698113 10.4433381,3.95471698 10.5935925,3.65283019 C10.7438468,3.3509434 11.1044573,3.23018868 11.4049661,3.38113208 C13.6888325,4.52830189 15.1012236,6.79245283 15.1012236,9.35849057 C15.1012236,9.50943396 15.1012236,9.63018868 15.0711728,9.78113208 L15.0711728,9.84150943 C15.0711728,10.1433962 14.8007149,10.3849057 14.4701553,10.3849057 Z M8.49003124,16 C7.16779276,16 5.87560516,15.6075472 4.79377367,14.8528302 C4.5233158,14.6716981 4.43316318,14.2792453 4.6435193,14.0075472 C4.82382455,13.7358491 5.21448592,13.645283 5.48494379,13.8566038 C6.38647002,14.4603774 7.43825063,14.7924528 8.52008212,14.7924528 C9.6019136,14.7924528 10.6536942,14.4603774 11.5552205,13.8566038 C11.8256783,13.6754717 12.2163397,13.7358491 12.3966449,14.0075472 C12.5769502,14.2792453 12.5168484,14.6716981 12.2463906,14.8528302 C11.1044573,15.6075472 9.81226973,16 8.49003124,16 Z M2.50990721,10.3849057 C2.20939846,10.3849057 1.93894059,10.1433962 1.90888971,9.81132075 L1.90888971,9.7509434 C1.90888971,9.63018868 1.87883884,9.47924528 1.87883884,9.35849057 C1.87883884,6.79245283 3.29122994,4.52830189 5.60514729,3.38113208 C5.90565603,3.23018868 6.26626653,3.3509434 6.4165209,3.65283019 C6.56677527,3.95471698 6.44657177,4.31698113 6.14606303,4.46792453 C4.25285793,5.40377358 3.08087382,7.2754717 3.08087382,9.35849057 C3.08087382,9.47924528 3.08087382,9.56981132 3.1109247,9.66037736 L3.1109247,9.72075472 C3.14097557,10.0528302 2.8705177,10.354717 2.53995808,10.354717 C2.53995808,10.3849057 2.50990721,10.3849057 2.50990721,10.3849057 Z" id="Shape"></path>
            </g>
        </g>
    </g>
</svg>