<?xml version="1.0" encoding="UTF-8"?>
<svg width="16px" height="16px" viewBox="0 0 16 16" version="1.1" xmlns="http://www.w3.org/2000/svg" xmlns:xlink="http://www.w3.org/1999/xlink">
    <!-- Generator: Sketch 52.5 (67469) - http://www.bohemiancoding.com/sketch -->
    <title>Emphasize</title>
    <desc>Created with Sketch.</desc>
    <g id="Page-1" stroke="none" stroke-width="1" fill="none" fill-rule="evenodd">
        <g id="3" transform="translate(-296.000000, -168.000000)" fill="#FFFFFF" fill-rule="nonzero">
            <g id="Emphasize" transform="translate(296.000000, 168.000000)">
                <path d="M8,16 C3.582,16 0,12.418 0,8 C0,3.582 3.582,0 8,0 C12.418,0 16,3.582 16,8 C16,12.418 12.418,16 8,16 Z M8,14.6666667 C11.682,14.6666667 14.6666667,11.682 14.6666667,8 C14.6666667,4.318 11.682,1.33333333 8,1.33333333 C4.318,1.33333333 1.33333333,4.318 1.33333333,8 C1.33333333,11.682 4.318,14.6666667 8,14.6666667 Z M7.33333333,7.33333333 C7.33333333,6.96514349 7.63181016,6.66666666 8,6.66666666 C8.36818984,6.66666666 8.66666667,6.96514349 8.66666667,7.33333333 L8.66666667,12 C8.66666667,12.3681898 8.36818984,12.6666667 8,12.6666667 C7.63181016,12.6666667 7.33333333,12.3681898 7.33333333,12 L7.33333333,7.33333333 Z M7.93333333,5.2 C7.41786756,5.2 6.99999999,4.78213243 6.99999999,4.26666666 C6.99999999,3.7512009 7.41786756,3.33333333 7.93333333,3.33333333 C8.4487991,3.33333333 8.86666666,3.7512009 8.86666666,4.26666666 C8.86666666,4.78213243 8.4487991,5.2 7.93333333,5.2 Z" id="Shape"></path>
            </g>
        </g>
    </g>
</svg>