<?xml version="1.0" encoding="UTF-8"?>
<svg width="20px" height="20px" viewBox="0 0 20 20" version="1.1" xmlns="http://www.w3.org/2000/svg" xmlns:xlink="http://www.w3.org/1999/xlink">
    <!-- Generator: Sketch 52.5 (67469) - http://www.bohemiancoding.com/sketch -->
    <title>Enter-1</title>
    <desc>Created with Sketch.</desc>
    <g id="Page-1" stroke="none" stroke-width="1" fill="none" fill-rule="evenodd">
        <g id="3" transform="translate(-332.000000, -46.000000)" fill="#FEC00F" fill-rule="nonzero">
            <g id="Enter-1" transform="translate(332.000000, 46.000000)">
                <path d="M13.9542063,15.2428789 L13.9542063,17.8022609 C13.9542063,18.245885 13.5792984,18.5924357 13.1344907,18.5924356 L12.0727557,18.5924356 C11.9581332,18.8682217 11.7889453,19.1281176 11.5757792,19.3473193 C11.1592665,19.7554015 10.5945079,20 9.99880166,20 C9.40518964,20 8.85101832,19.7603486 8.42210332,19.3473193 C8.19809394,19.1281176 8.03660801,18.8682217 7.91982157,18.5924356 L6.86313584,18.5924356 C6.40797355,18.5924356 6.04367621,18.2458849 6.04367621,17.8022609 L6.04367621,15.2428789 C5.73361858,15.023472 5.43228677,14.784003 5.16169313,14.5084905 C3.87329603,13.2589155 3.15789476,11.5667423 3.15789474,9.77161387 C3.15789474,7.99205639 3.87329601,6.30455677 5.16169313,5.03968437 C6.44955503,3.78023787 8.17477856,3.07692305 9.99880166,3.07692308 C11.8175195,3.07692308 13.5507242,3.7802379 14.8308841,5.03968437 C16.1264248,6.30455674 16.8421053,7.99205637 16.8421053,9.77161387 C16.8421053,11.5667423 16.126448,13.2589155 14.8308841,14.5084905 C14.5602905,14.7840258 14.2661022,15.023472 13.9542063,15.2428789 Z M10.0006423,9.1372796 C10.131674,9.03766188 10.2804382,8.94867318 10.4289959,8.89084575 C10.723932,8.77043825 11.0319438,8.71794874 11.3397032,8.71794872 C11.652647,8.71794872 11.9653843,8.77043823 12.2501581,8.89084575 C12.5352072,9.01153418 12.8072036,9.18951159 13.0173315,9.42496524 C13.2047491,9.61357166 13.2047491,9.91167561 13.0173315,10.1109344 C12.8301663,10.3049022 12.5221545,10.3049022 12.3399672,10.1109344 C12.2146704,9.98495491 12.0502154,9.87545737 11.8810808,9.8075394 C11.7140337,9.7236311 11.5320528,9.6922123 11.3397032,9.6922123 C11.1575158,9.6922123 10.9703506,9.72871147 10.7986008,9.8075394 C10.6341688,9.87545737 10.4722831,9.98495491 10.3365717,10.1109344 C10.1494065,10.3049022 9.84662495,10.3049022 9.66443761,10.1109344 C9.52845089,9.98495491 9.36945563,9.87545737 9.19768293,9.8075394 C9.02831889,9.72871147 8.84608568,9.6922123 8.66417363,9.6922123 C8.47675602,9.6922123 8.28697564,9.7236311 8.11735927,9.8075394 C7.94586185,9.87545737 7.79211979,9.98495491 7.66076687,10.1109344 C7.46869251,10.3049022 7.1710954,10.3049022 6.97874577,10.1109344 C6.79655843,9.91167561 6.79655843,9.61357166 6.97874577,9.42496524 C7.20685845,9.18948816 7.46869253,9.01151077 7.75346634,8.89084575 C8.04840245,8.77043825 8.3509775,8.71794874 8.66417363,8.71794872 C8.97193305,8.71794872 9.27680205,8.77043823 9.56969654,8.89084575 C9.723668,8.94867318 9.85965472,9.03766188 10.0006423,9.1372796 Z M10.5263158,2.07111502 C10.5263158,2.33843811 10.284387,2.56410256 10.0002863,2.56410256 C9.71078335,2.56410256 9.47368421,2.33841465 9.47368421,2.07111502 L9.47368421,0.492729675 C9.47368421,0.22540659 9.71078335,0 10.0002863,0 C10.284387,0 10.5263158,0.22540659 10.5263158,0.492729675 L10.5263158,2.07111502 Z M14.5000886,2.85184649 C14.380323,3.0636469 14.1107664,3.14182261 13.9019733,3.01753536 C13.6934738,2.90704868 13.6209267,2.63979924 13.7449697,2.42871868 L14.4435396,1.23724362 C14.5680858,1.03949056 14.8377052,0.96112974 15.0416548,1.08560208 C15.2504479,1.20053126 15.3277337,1.46265949 15.2034391,1.66977059 L14.5000886,2.85184649 Z M16.9802973,6.09991098 C16.7604891,6.21398921 16.4981606,6.14079617 16.3728609,5.93982161 C16.2523584,5.7343746 16.3305096,5.47384898 16.5337069,5.35977076 L17.7625066,4.66541702 C17.9775174,4.5559542 18.2398671,4.63357887 18.3654204,4.82550641 C18.4810622,5.03095342 18.4123154,5.29584938 18.1973256,5.41021351 L16.9802973,6.09991098 Z M17.8785017,10.2564103 C17.6029925,10.2564103 17.3684211,10.0148739 17.3684211,9.73536529 C17.3684211,9.4670351 17.6029925,9.23076923 17.8785017,9.23076923 L19.4954227,9.23076923 C19.7706665,9.23076923 20,9.4670351 20,9.73536529 C20,10.0148984 19.7706665,10.2564102 19.4954227,10.2564103 L17.8785017,10.2564103 Z M16.5337084,14.125665 C16.3305097,14.015437 16.252358,13.7499353 16.3728613,13.5392096 C16.4981407,13.3469201 16.760492,13.2732572 16.9803017,13.3876846 L18.197338,14.0797384 C18.4123081,14.189782 18.4810554,14.4508385 18.365434,14.6613184 C18.2399009,14.8587496 17.9775496,14.9319413 17.7625161,14.817473 L16.5337084,14.125665 Z M2.49278719,13.3876844 C2.71499245,13.2732574 2.97762752,13.34692 3.10304243,13.539209 C3.21885235,13.7499137 3.14588406,14.0154351 2.9350186,14.1256628 L1.71689877,14.8174688 C1.49687262,14.9319368 1.23423753,14.8587658 1.10854761,14.6613147 C0.99277999,14.4508354 1.06136892,14.1897591 1.27179008,14.0797363 L2.49278719,13.3876844 Z M2.12630053,9.23076923 C2.40178176,9.23076923 2.63157895,9.46703511 2.63157895,9.7353653 C2.63157895,10.0148984 2.40175759,10.2564103 2.12630053,10.2564103 L0.507984209,10.2564103 C0.232575449,10.2564103 2.36084394e-08,10.0148739 0,9.7353653 C0,9.46703511 0.232575449,9.23076923 0.507984209,9.23076923 L2.12630053,9.23076923 Z M2.93486733,5.36062659 C3.14900824,5.47439388 3.22146794,5.73418903 3.09707108,5.94834284 C2.9724219,6.14416678 2.6996782,6.21251678 2.49054177,6.09874947 L1.27006053,5.41093185 C1.06287962,5.29687942 0.98795974,5.03270549 1.11477471,4.82781846 C1.23967623,4.62250371 1.50983358,4.55900094 1.7194116,4.66816541 L2.93486733,5.36062659 Z M6.25521751,2.42871869 C6.37962601,2.63979927 6.30676057,2.90704869 6.08829018,3.01753538 C5.89149893,3.14182261 5.62119165,3.0636469 5.49436967,2.8518465 L4.79778278,1.6697706 C4.67337428,1.46265949 4.74617676,1.19584195 4.95493037,1.08560208 C5.1614594,0.96112974 5.43371845,1.03949056 5.55814793,1.23724362 L6.25521751,2.42871869 Z M12.7301847,14.1285867 L12.7671362,14.107984 C13.11694,13.9077097 13.4327326,13.6568569 13.7247219,13.374997 C14.7160601,12.4059388 15.2631579,11.1041672 15.2631579,9.7408855 C15.2631579,8.37208076 14.7160602,7.08596167 13.7247219,6.12240361 C12.7302082,5.15362041 11.4072243,4.61538462 10.005351,4.61538462 C8.60587689,4.61538462 7.28021154,5.15362041 6.28887324,6.12240361 C5.29704101,7.08596165 4.73684208,8.37208076 4.73684211,9.7408855 C4.73684211,11.1041901 5.2970175,12.4059617 6.28887324,13.374997 C6.58086255,13.6568798 6.89373848,13.9077326 7.24622373,14.107984 L7.28021154,14.1388078 C8.09841196,14.620415 9.0372985,14.8717948 10.005351,14.8717949 C10.9704399,14.8717949 11.9149715,14.6253651 12.7301847,14.1285867 Z M7.89473684,15.8974359 L7.89473684,16.7162611 L8.81804282,16.7162611 C9.2786369,16.7162611 9.65611177,17.0297533 9.65611177,17.430006 L9.65611177,17.4392981 C9.65611177,17.5711568 9.71512567,17.7030358 9.82668099,17.8031956 L9.83210647,17.8031956 C9.94635074,17.9031723 10.0982402,17.9487179 10.263146,17.9487179 C10.4174626,17.9487179 10.5769668,17.8939005 10.6890932,17.8031956 L10.6993492,17.8031956 C10.8087629,17.7030358 10.8723695,17.5711568 10.8723695,17.4392981 L10.8723695,17.430006 C10.8723695,17.0297533 11.2446806,16.7162611 11.710724,16.7162611 L12.6315789,16.7162611 L12.6315789,15.8974359 C11.8758677,16.1341716 11.0722315,16.247751 10.263146,16.247751 C9.45436985,16.247751 8.65073362,16.1341716 7.89473684,15.8974359 Z" id="Shape"></path>
            </g>
        </g>
    </g>
</svg>