<?xml version="1.0" encoding="UTF-8"?>
<svg width="16px" height="16px" viewBox="0 0 16 16" version="1.1" xmlns="http://www.w3.org/2000/svg" xmlns:xlink="http://www.w3.org/1999/xlink">
    <!-- Generator: Sketch 52.5 (67469) - http://www.bohemiancoding.com/sketch -->
    <title>Exit</title>
    <desc>Created with Sketch.</desc>
    <g id="Page-1" stroke="none" stroke-width="1" fill="none" fill-rule="evenodd">
        <g id="3" transform="translate(-296.000000, -96.000000)" fill="#FFFFFF" fill-rule="nonzero">
            <g id="Exit" transform="translate(296.000000, 96.000000)">
                <path d="M15.8538888,7.57089202 L13.1872581,4.13659723 C13.0582689,3.97048606 12.8651688,3.87878788 12.6665312,3.87878788 C12.5927525,3.87878788 12.5182977,3.89145993 12.4459811,3.91755719 C12.1788465,4.01409448 12.0000197,4.27399387 12.0000197,4.56567696 L12.0000197,6.62628772 L6.66664868,6.62628772 C5.93026955,6.62628772 5.33333333,7.24130576 5.33333333,7.99999058 C5.33333333,8.75869422 5.93026955,9.37369343 6.66664868,9.37369343 L12.0000197,9.37369343 L12.0000197,11.4343042 C12.0000197,11.7259873 12.1788465,11.9859055 12.4459811,12.082424 C12.5182977,12.1086342 12.5927525,12.1212121 12.6665312,12.1212121 C12.865187,12.1212121 13.0582688,12.0296081 13.1872581,11.8633651 L15.8538705,8.42905149 C16.0487068,8.17826541 16.0487068,7.8218099 15.8538888,7.57089202 Z M9.33323282,13.3334186 L5.33333333,13.3334186 L4.00002741,13.3334186 L4.00002741,13.3332176 C3.99646369,13.3332176 3.99299135,13.3334186 3.98953728,13.3334186 C3.25897498,13.3334186 2.66659357,12.7364812 2.66659357,12.0001005 L2.66659357,10.6667824 L2.66659357,5.33340034 L2.66659357,4.00008223 L2.66679459,4.00008223 C2.66679459,3.99651848 2.66659357,3.99304611 2.66659357,3.98959201 C2.66659357,3.25902302 3.26361695,2.6666362 4.00002741,2.6666362 L5.33333333,2.6666362 L9.33323282,2.6666362 C10.069625,2.6666362 10.6666667,2.06973529 10.6666667,1.3333181 C10.6666667,0.596937452 10.0696433,0 9.33323282,0 L2.66659357,1.26898755e-15 C1.19393711,1.26898755e-15 0,1.19396629 0,2.66661793 L0,13.3333821 C0,14.8061799 1.19395538,16 2.66659357,16 L9.33321455,16 C10.0696067,16 10.6666484,15.4030991 10.6666484,14.6666819 C10.6666484,13.9303378 10.069625,13.3334186 9.33323282,13.3334186 Z" id="Shape"></path>
            </g>
        </g>
    </g>
</svg>