<?xml version="1.0" encoding="UTF-8"?>
<svg width="16px" height="16px" viewBox="0 0 16 16" version="1.1" xmlns="http://www.w3.org/2000/svg" xmlns:xlink="http://www.w3.org/1999/xlink">
    <!-- Generator: Sketch 52.5 (67469) - http://www.bohemiancoding.com/sketch -->
    <title>Filter-1</title>
    <desc>Created with Sketch.</desc>
    <g id="Page-1" stroke="none" stroke-width="1" fill="none" fill-rule="evenodd">
        <g id="3" transform="translate(-334.000000, -309.000000)" fill="#FEC00F" fill-rule="nonzero">
            <g id="Filter-1" transform="translate(334.000000, 309.000000)">
                <path d="M8.88885866,8.00027813 C8.88885866,7.80794435 8.95123874,7.62079878 9.06663572,7.46693176 L14.3999478,0.355646868 C14.5904764,0.101550277 14.9020938,-0.0315869248 15.2174035,0.00639242067 C15.5327132,0.0443717661 15.8038057,0.247696915 15.9285516,0.539768605 C16.0532974,0.831840296 16.0127422,1.16827991 15.8221644,1.4223396 L10.6666294,8.29628536 L10.6666294,13.3337418 C10.6664496,13.6703418 10.4761674,13.9779677 10.1750757,14.1284279 L6.61953435,15.9062491 C6.34406659,16.0439047 6.01697747,16.0291725 5.75499942,15.86731 C5.49302136,15.7054475 5.33348165,15.4195173 5.33331724,15.111563 L5.33331724,8.29628536 L0.177782191,1.4223396 C-0.0242287701,1.152984 -0.0567228346,0.792609036 0.0938472485,0.491460316 C0.244417332,0.190311597 0.552205549,8.26137929e-05 0.888890486,8.26157657e-05 L11.5555147,8.26157657e-05 C12.0463794,0.000157765902 12.444264,0.39811459 12.444264,0.888993225 C12.444264,1.37987186 12.0463794,1.77782868 11.5555147,1.77790383 L2.66666118,1.77790383 L6.93331088,7.46693176 C7.04870786,7.62079878 7.11108794,7.80794435 7.11108794,8.00027813 L7.11108794,13.6733057 L8.88885866,12.784395 L8.88885866,8.00027813 Z" id="Shape"></path>
            </g>
        </g>
    </g>
</svg>