<?xml version="1.0" encoding="UTF-8"?>
<svg width="16px" height="14px" viewBox="0 0 16 14" version="1.1" xmlns="http://www.w3.org/2000/svg" xmlns:xlink="http://www.w3.org/1999/xlink">
    <!-- Generator: Sketch 52.5 (67469) - http://www.bohemiancoding.com/sketch -->
    <title>Predict-1</title>
    <desc>Created with Sketch.</desc>
    <g id="Page-1" stroke="none" stroke-width="1" fill="none" fill-rule="evenodd">
        <g id="3" transform="translate(-334.000000, -371.000000)" fill="#FEC00F">
            <g id="Predict-1" transform="translate(334.000000, 371.000000)">
                <path d="M1.62566845,9.69230769 C2.03636364,9.69230769 2.31016043,9.97948718 2.31016043,10.4102564 L2.31016043,13.2820513 C2.31016043,13.7128205 2.03636364,14 1.62566845,14 C1.21497326,14 0.941176471,13.7128205 0.941176471,13.2820513 L0.941176471,10.4102564 C0.941176471,9.97948718 1.21497326,9.69230769 1.62566845,9.69230769 Z M6.4171123,5.38461538 C6.82780749,5.38461538 7.10160428,5.67179487 7.10160428,6.1025641 L7.10160428,13.2820513 C7.10160428,13.7128205 6.82780749,14 6.4171123,14 C6.00641711,14 5.73262032,13.7128205 5.73262032,13.2820513 L5.73262032,6.1025641 C5.73262032,5.67179487 6.00641711,5.38461538 6.4171123,5.38461538 Z M10.5240642,8.25641026 C10.9347594,8.25641026 11.2085561,8.54358974 11.2085561,8.97435897 L11.2085561,13.2820513 C11.2085561,13.7128205 10.9347594,14 10.5240642,14 C10.113369,14 9.83957219,13.7128205 9.83957219,13.2820513 L9.83957219,8.97435897 C9.83957219,8.54358974 10.113369,8.25641026 10.5240642,8.25641026 Z M15.315508,4.66666667 C15.7262032,4.66666667 16,4.95384615 16,5.38461538 L16,13.2820513 C16,13.7128205 15.7262032,14 15.315508,14 C14.9048128,14 14.631016,13.7128205 14.631016,13.2820513 L14.631016,5.38461538 C14.631016,4.95384615 14.9048128,4.66666667 15.315508,4.66666667 Z" id="形状" fill-rule="nonzero"></path>
                <path d="M6.29288703,2.75294118 L1.13807531,8.18823529 C0.870292887,8.47058824 0.468619247,8.47058824 0.20083682,8.18823529 C-0.0669456067,7.90588235 -0.0669456067,7.48235294 0.20083682,7.2 L6.29288703,0.776470588 L10.3096234,5.01176471 L14.8619247,0.211764706 C15.1297071,-0.0705882353 15.5313808,-0.0705882353 15.7991632,0.211764706 C16.0669456,0.494117647 16.0669456,0.917647059 15.7991632,1.2 L10.3096234,6.98823529 L6.29288703,2.75294118 Z" id="路径"></path>
            </g>
        </g>
    </g>
</svg>