<?xml version="1.0" encoding="UTF-8"?>
<svg width="16px" height="9px" viewBox="0 0 16 9" version="1.1" xmlns="http://www.w3.org/2000/svg" xmlns:xlink="http://www.w3.org/1999/xlink">
    <!-- Generator: Sketch 52.5 (67469) - http://www.bohemiancoding.com/sketch -->
    <title>Repeat-1</title>
    <desc>Created with Sketch.</desc>
    <g id="Page-1" stroke="none" stroke-width="1" fill="none" fill-rule="evenodd">
        <g id="3" transform="translate(-334.000000, -229.000000)" fill="#FEC00F" fill-rule="nonzero">
            <g id="Repeat-1" transform="translate(334.000000, 229.000000)">
                <path d="M3.99999999,9 C3.44771525,8.99999999 3.00000001,8.49632033 3.00000001,7.875 L3.00000001,6.1875 L1,6.1875 C0.734783512,6.1875 0.480429598,6.06897356 0.292893219,5.85799513 C0.105356841,5.64701671 0,5.36086855 0,5.0625 L0,1.125 C0,0.503679658 0.447715251,0 1,0 L12,0 C12.5522848,1.09352386e-08 13,0.503679665 13,1.125 L13,2.8125 L15,2.8125 C15.5522847,2.8125 16,3.31617965 16,3.9375 L16,7.875 C16,8.49632034 15.5522847,9 15,9 L3.99999999,9 Z M3.99999999,7.31250001 C3.99999999,7.46168428 4.05267841,7.60475836 4.1464466,7.71024757 C4.2402148,7.81573678 4.36739176,7.875 4.5,7.875 L9,7.875 L9,3.9375 L4.5,3.9375 C4.36739176,3.93749999 4.2402148,3.99676321 4.1464466,4.10225242 C4.05267841,4.20774164 3.99999999,4.35081571 3.99999999,4.49999999 L3.99999999,7.31250001 Z M6,1.125 L1.49999999,1.125 C1.22385762,1.125 1,1.37683983 1,1.68749999 L1,4.49999999 C0.999999997,4.64918427 1.05267841,4.79225835 1.1464466,4.89774756 C1.24021479,5.00323678 1.36739175,5.0625 1.49999999,5.0625 L3.00000001,5.0625 L3.00000001,3.9375 C3.00000001,3.31617966 3.44771525,2.81250001 3.99999999,2.8125 L6,2.8125 L6,1.125 Z M12,1.68749999 C12,1.53831572 11.9473216,1.39524164 11.8535534,1.28975243 C11.7597852,1.18426322 11.6326082,1.125 11.5,1.125 L7,1.125 L7,2.8125 L12,2.8125 L12,1.68749999 Z M15,4.49999999 C15,4.18933982 14.7761424,3.9375 14.5,3.9375 L10,3.9375 L10,7.875 L14.5,7.875 C14.6326082,7.875 14.7597852,7.81573678 14.8535534,7.71024756 C14.9473216,7.60475835 15,7.46168428 15,7.31250001 L15,4.49999999 Z" id="Shape"></path>
            </g>
        </g>
    </g>
</svg>