<?xml version="1.0" encoding="UTF-8"?>
<svg width="16px" height="16px" viewBox="0 0 16 16" version="1.1" xmlns="http://www.w3.org/2000/svg" xmlns:xlink="http://www.w3.org/1999/xlink">
    <!-- Generator: Sketch 52.5 (67469) - http://www.bohemiancoding.com/sketch -->
    <title>Show staistics</title>
    <desc>Created with Sketch.</desc>
    <g id="Page-1" stroke="none" stroke-width="1" fill="none" fill-rule="evenodd">
        <g id="3" transform="translate(-296.000000, -351.000000)" fill="#FFFFFF" fill-rule="nonzero">
            <g id="Show-staistics" transform="translate(296.000000, 351.000000)">
                <path d="M5.94999526,0 L1.05000473,0 C0.470110195,0 6.60448171e-17,0.470111255 6.60448171e-17,1.0500071 L0,5.95000867 C0,6.52990451 0.470110195,7 1.05000473,7 L5.94999527,7 C6.52988981,7 7,6.52990451 7,5.95000867 L6.99999998,1.04999133 C6.99999998,0.47009549 6.52988979,0 5.94999526,0 Z M5.6875059,3.93747538 L3.93748227,3.93747538 L3.93748227,5.68750297 L3.06250197,5.68750297 L3.06250195,3.93747538 L1.31250985,3.93747538 L1.31250985,3.06249311 L3.06250197,3.06249311 L3.06250195,1.31249705 L3.93748225,1.31249705 L3.93748225,3.06249311 L5.6875059,3.06249311 L5.6875059,3.93747538 Z" id="Shape"></path>
                <path d="M14.9500087,0 L10.0500071,0 C9.47011125,0 9,0.470111255 9,1.0500071 L9,5.95000867 C9,6.52990451 9.47011125,7 10.0500071,7 L14.9500087,7 C15.5298887,7 16,6.52990451 16,5.95000867 L16,1.04999133 C16,0.47009549 15.5298887,0 14.9500087,0 Z M14.6875345,3.93747538 L10.312497,3.93747538 L10.312497,3.06249311 L14.6875345,3.06249311 L14.6875345,3.93747538 Z" id="Shape"></path>
                <path d="M5.94999526,9 L1.05000473,9 C0.470110195,9 0,9.47009761 0,10.0499961 L0,14.9500039 C0,15.5299339 0.470110195,16 1.05000473,16 L5.94999527,16 C6.52988981,16 7,15.5299339 7,14.9500039 L6.99999998,10.0500118 C6.99999998,9.47011337 6.52988979,9 5.94999526,9 Z M5.35615111,13.7374661 L4.73743406,14.3562188 L3.49999998,13.1187606 L2.26255016,14.3562188 L1.64383313,13.7374661 L2.8812672,12.5000079 L1.64383313,11.2625497 L2.26255016,10.64386 L3.49998424,11.8813024 L4.73741831,10.64386 L5.35613535,11.2625497 L4.11870127,12.5000079 L5.35615111,13.7374661 Z" id="Shape"></path>
                <path d="M14.9500087,9 L10.0500071,9 C9.47011125,9 9,9.47009761 9,10.0499961 L9,14.9500039 C9,15.5299339 9.47011125,16 10.0500071,16 L14.9500087,16 C15.5298887,16 16,15.5299339 16,14.9500039 L16,10.0500118 C16,9.47011337 15.5298887,9 14.9500087,9 Z M14.2500355,13.8125266 L10.7500276,13.8125266 L10.7500276,12.9375246 L14.2500355,12.9375246 L14.2500355,13.8125266 Z M14.2500355,12.0625069 L10.7500276,12.0625069 L10.7500276,11.1875207 L14.2500355,11.1875207 L14.2500355,12.0625069 Z" id="Shape"></path>
            </g>
        </g>
    </g>
</svg>