<?xml version="1.0" encoding="UTF-8"?>
<svg width="16px" height="16px" viewBox="0 0 16 16" version="1.1" xmlns="http://www.w3.org/2000/svg" xmlns:xlink="http://www.w3.org/1999/xlink">
    <!-- Generator: Sketch 52.5 (67469) - http://www.bohemiancoding.com/sketch -->
    <title>Sort</title>
    <desc>Created with Sketch.</desc>
    <g id="Page-1" stroke="none" stroke-width="1" fill="none" fill-rule="evenodd">
        <g id="3" transform="translate(-296.000000, -330.000000)" fill="#FFFFFF" fill-rule="nonzero">
            <g id="Sort" transform="translate(296.000000, 330.000000)">
                <path d="M1.3772276,6.36213441 L1.3772276,2.2308551 L5.50712412,2.22906899 L5.50891041,6.36034829 L1.3772276,6.36213441 Z M5.50891041,0.853762 L1.37544131,0.853762 C0.61626916,0.855548113 0.00178628742,1.46997098 0,2.22906899 L0,6.36392052 C0.00178628742,7.12301853 0.61626916,7.73744139 1.37544131,7.73922751 L5.5106967,7.73922751 C6.26986885,7.73744139 6.88435172,7.12301853 6.88613801,6.36392052 L6.88613801,2.22906899 C6.88256544,1.46997098 6.26808256,0.855548113 5.50891041,0.853762 Z M1.3772276,14.6229069 L1.3772276,10.4898415 L5.50712412,10.4880554 L5.50891041,14.6193347 L1.3772276,14.6229069 Z M5.50891041,9.11453449 L1.37544131,9.11453449 C0.61626916,9.11632061 0.00178628742,9.73074347 0,10.4898415 L0,14.624693 C0.00178628742,15.383791 0.61626916,15.9982139 1.37544131,16 L5.5106967,16 C6.26986885,15.9982139 6.88435172,15.383791 6.88613801,14.624693 L6.88613801,10.4880554 C6.88256544,9.73074347 6.26808256,9.11632061 5.50891041,9.11453449 Z M11.7037552,7.21768252 L8.78138896,4.2956017 L11.7001826,1.37352088 L14.6243351,4.29381558 L11.7037552,7.21768252 Z M15.5978618,3.32395624 L12.6737093,0.401875419 C12.1360367,-0.133958473 11.2679011,-0.133958473 10.7302285,0.401875419 L7.80786232,3.32395624 C7.5504812,3.58110175 7.40589264,3.93000806 7.40594765,4.29381558 C7.40416136,4.65996874 7.54885064,5.01004689 7.80786232,5.26903327 L10.7320148,8.1929002 C11.2696873,8.72873409 12.1396093,8.72873409 12.6754955,8.1929002 L15.5996481,5.26903327 C16.133748,4.72962715 16.133748,3.85979013 15.5978618,3.32395624 Z M9.63702064,14.6229069 L9.63702064,10.4898415 L13.7669172,10.4880554 L13.7687034,14.6193347 L9.63702064,14.6229069 Z M13.7704897,9.11453449 L9.63523435,9.11453449 C8.8760622,9.11632061 8.26157932,9.73074347 8.25979304,10.4898415 L8.25979304,14.624693 C8.26157932,15.383791 8.8760622,15.9982139 9.63523435,16 L13.7704897,16 C14.5296619,15.9982139 15.1441448,15.383791 15.145931,14.624693 L15.145931,10.4880554 C15.1441448,9.73074347 14.5278756,9.11632061 13.7704897,9.11453449 Z" id="形状"></path>
            </g>
        </g>
    </g>
</svg>