<?xml version="1.0" encoding="UTF-8"?>
<svg width="16px" height="16px" viewBox="0 0 16 16" version="1.1" xmlns="http://www.w3.org/2000/svg" xmlns:xlink="http://www.w3.org/1999/xlink">
    <!-- Generator: Sketch 52.5 (67469) - http://www.bohemiancoding.com/sketch -->
    <title>Transition-1</title>
    <desc>Created with Sketch.</desc>
    <g id="Page-1" stroke="none" stroke-width="1" fill="none" fill-rule="evenodd">
        <g id="3" transform="translate(-334.000000, -243.000000)" fill="#FEC00F" fill-rule="nonzero">
            <g id="Transition-1" transform="translate(334.000000, 243.000000)">
                <path d="M0.3336095,5.94752831 L3.29411765,7.5316211 C3.37586302,7.57580779 3.4642364,7.59790113 3.55481911,7.59790113 C3.64540182,7.59790113 3.7337752,7.57580779 3.81552057,7.5316211 L6.77602872,5.94752831 C6.82463408,5.92101629 6.86882077,5.88787628 6.90637945,5.85031759 C7.01021817,5.74647887 7.06766087,5.6072908 7.06766087,5.4592654 L7.06766087,2.29107981 C7.06766087,2.06793703 6.9351008,1.8735156 6.7428887,1.78735156 L3.81552057,0.223142778 C3.65202983,0.136978735 3.4576084,0.136978735 3.29411765,0.223142778 L0.362330848,1.78956089 C0.344656172,1.79839823 0.324772162,1.80723557 0.309306821,1.81828224 C0.143606738,1.91770229 0.0419773543,2.09886772 0.0419773543,2.29107981 L0.0419773543,5.4592654 C0.0419773543,5.60508147 0.101629384,5.74647887 0.205468103,5.85031759 C0.243026788,5.89008561 0.285004143,5.92322563 0.3336095,5.94752831 Z M1.14664457,5.13007457 L1.14664457,3.21458161 L2.98702016,4.19773543 L2.98702016,6.11322839 L1.14664457,5.13007457 Z M4.08947804,6.13090307 L4.08947804,4.21541011 L5.96299365,3.21237227 L5.96299365,5.12786523 L4.08947804,6.13090307 Z M3.55481911,1.33664733 L5.34438001,2.29328915 L3.56144711,3.24551229 L1.76746755,2.29107981 L3.55481911,1.33664733 Z M15.5227838,10.1474731 L12.5954156,8.58105496 C12.4319249,8.49489091 12.2375035,8.49489091 12.0740127,8.58105496 L9.1422259,10.1474731 C9.12455123,10.1563104 9.10466722,10.1651477 9.08920188,10.1761944 C8.9235018,10.2756145 8.82187241,10.4567799 8.82187241,10.648992 L8.82187241,13.8171776 C8.82187241,13.9629936 8.87931511,14.1021817 8.98315382,14.2060204 C9.02292184,14.2457885 9.06710853,14.2789285 9.11571389,14.3054405 L12.076222,15.8895333 C12.1579674,15.93372 12.2463408,15.9558133 12.3369235,15.9558133 C12.4275062,15.9558133 12.5158796,15.93372 12.597625,15.8895333 L15.5581331,14.3054405 C15.6067385,14.2789285 15.6509252,14.2457885 15.6884838,14.2082298 C15.7923226,14.1043911 15.8497653,13.965203 15.8497653,13.8171776 L15.8497653,10.6512013 C15.8475559,10.4280585 15.7149959,10.2336371 15.5227838,10.1474731 Z M12.3347142,9.69455951 L14.1242751,10.6512013 L12.3413422,11.6034245 L10.5473626,10.6512013 L12.3347142,9.69455951 Z M9.9243303,13.4879867 L9.9243303,11.5724938 L11.7647059,12.5556476 L11.7647059,14.4711406 L9.9243303,13.4879867 Z M12.8693731,14.4910246 L12.8693731,12.5755316 L14.7428887,11.5724938 L14.7428887,13.4879867 L12.8693731,14.4910246 Z M14.8953328,7.55813311 C14.8953328,7.86302126 15.1427782,8.11046672 15.4476664,8.11046672 C15.7525545,8.11046672 16,7.86302126 16,7.55813311 C16,6.5374206 15.8011599,5.54763877 15.405689,4.61529964 C15.0256835,3.71610052 14.4799779,2.90748412 13.7862469,2.21375311 C13.0925159,1.52002209 12.2838995,0.974316487 11.3847004,0.594310964 C10.4523612,0.201049434 9.4625794,0 8.44186689,0 C8.13697874,0 7.88953328,0.247445457 7.88953328,0.55233361 C7.88953328,0.857221762 8.13697874,1.10466722 8.44186689,1.10466722 C10.1651477,1.10466722 11.7867992,1.77630489 13.0063518,2.9958575 C14.2236951,4.21320077 14.8953328,5.83485225 14.8953328,7.55813311 Z M7.55813311,14.8953328 C5.83485225,14.8953328 4.21320077,14.2236951 2.99364816,13.0041425 C1.77630489,11.7867992 1.10466722,10.1651477 1.10466722,8.44186689 C1.10466722,8.13697874 0.857221762,7.88953328 0.55233361,7.88953328 C0.247445457,7.88953328 0,8.13697874 0,8.44186689 C0,9.4625794 0.198840099,10.4523612 0.594310964,11.3847004 C0.974316487,12.2838995 1.52002209,13.0925159 2.21375311,13.7862469 C2.90748412,14.4799779 3.71610052,15.0256835 4.61529964,15.405689 C5.54763877,15.7989506 6.5374206,16 7.55813311,16 C7.86302126,16 8.11046672,15.7525545 8.11046672,15.4476664 C8.11046672,15.1427782 7.86302126,14.8953328 7.55813311,14.8953328 Z" id="形状"></path>
            </g>
        </g>
    </g>
</svg>