<?xml version="1.0" encoding="UTF-8"?>
<svg width="16px" height="16px" viewBox="0 0 16 16" version="1.1" xmlns="http://www.w3.org/2000/svg" xmlns:xlink="http://www.w3.org/1999/xlink">
    <!-- Generator: Sketch 52.5 (67469) - http://www.bohemiancoding.com/sketch -->
    <title>Update</title>
    <desc>Created with Sketch.</desc>
    <g id="Page-1" stroke="none" stroke-width="1" fill="none" fill-rule="evenodd">
        <g id="3" transform="translate(-296.000000, -73.000000)" fill="#FFFFFF" fill-rule="nonzero">
            <g id="Update" transform="translate(296.000000, 73.000000)">
                <path d="M8.33733856,4.23529412 L8.33733856,7.91831581 L11.2941176,9.75939017 L10.6949203,10.8235294 L7.05882353,8.57303642 L7.05882353,4.23529412 L8.33733856,4.23529412 Z M15.9982222,6.33475918 L9.95644445,6.33475918 L12.4151111,3.83445364 C11.1925926,2.61200304 9.72740741,1.9939633 8.01955555,1.98033442 C6.31170369,1.96670554 4.84651851,2.55689497 3.624,3.75090272 C2.42933333,4.97335332 1.832,6.41771753 1.832,8.08399533 C1.832,9.75027314 2.42933333,11.1946373 3.624,12.4170879 C4.81866666,13.6395385 6.27703703,14.2507638 7.99911109,14.2507638 C9.72118516,14.2507638 11.1934815,13.6395385 12.416,12.4170879 C13.6106666,11.2224876 14.208,9.77812344 14.208,8.08399533 L16,8.08399533 C16,10.2782438 15.2222222,12.1391775 13.6666666,13.6667963 C12.1111111,15.2222654 10.2222222,16 7.99999999,16 C5.77777777,16 3.88888888,15.2222654 2.33333333,13.6667963 C0.777777777,12.1391774 0,10.2850582 0,8.10443864 C0,5.92381904 0.777777777,4.05577468 2.33333333,2.50030553 C3.88888888,0.944836392 5.76385185,0.167101821 7.95822222,0.167101821 C10.1525926,0.167101821 12.0275556,0.944836392 13.5831111,2.50030553 L16,0 L16,6.33298151 L15.9982222,6.33475918 Z" id="Shape"></path>
            </g>
        </g>
    </g>
</svg>